<svg width="121" height="33" viewBox="0 0 121 33" fill="none" xmlns="http://www.w3.org/2000/svg">
<path fill-rule="evenodd" clip-rule="evenodd" d="M34.6988 24.9999H40.1388V13.5759C40.1388 12.8053 40.0708 12.0176 39.9348 11.2129C39.7988 10.4083 39.5324 9.68294 39.1357 9.03693C38.7391 8.39093 38.1724 7.85827 37.4358 7.43893C36.6991 7.0196 35.7301 6.80993 34.5288 6.80993C33.2367 6.80993 32.0524 7.09893 30.9758 7.67693C29.8991 8.25493 29.0321 9.07659 28.3748 10.1419V0.179932H22.9348V24.9999H28.3748V14.7659C28.5334 14.2899 28.7601 13.8593 29.0548 13.4739C29.3494 13.0886 29.6724 12.7543 30.0238 12.4709C30.3751 12.1876 30.7377 11.9723 31.1118 11.8249C31.4858 11.6776 31.8314 11.6039 32.1488 11.6039C32.9421 11.6039 33.5654 11.8759 34.0188 12.4199C34.4721 12.9639 34.6988 13.8139 34.6988 14.9699V24.9999ZM16.0006 7.42193C16.4086 7.67127 16.6466 7.84126 16.7146 7.93193L19.1626 3.30793C18.6186 2.9906 18.0236 2.67327 17.3776 2.35593C16.7316 2.0386 16.0346 1.75527 15.2866 1.50593C14.5386 1.2566 13.7566 1.0526 12.9406 0.893932C12.1246 0.735264 11.2973 0.655932 10.4586 0.655932C9.2573 0.655932 8.11831 0.82593 7.04164 1.16593C5.96497 1.50593 5.01864 2.01026 4.20264 2.67893C3.38664 3.3476 2.74064 4.16926 2.26464 5.14393C1.78864 6.1186 1.55064 7.24059 1.55064 8.50993C1.55064 9.4166 1.68097 10.2099 1.94164 10.8899C2.20231 11.5699 2.59897 12.1706 3.13164 12.6919C3.66431 13.2133 4.33864 13.6723 5.15464 14.0689C5.97064 14.4656 6.93397 14.8339 8.04464 15.1739C8.38011 15.2737 8.7056 15.3698 9.02112 15.4623L10.7226 15.9573C11.2909 16.1321 11.7922 16.3186 12.2266 16.5169C12.748 16.7549 13.156 17.0213 13.4506 17.3159C13.7453 17.6106 13.8926 17.9846 13.8926 18.4379C13.8926 19.6393 12.9066 20.2399 10.9346 20.2399C10.0053 20.2399 9.08731 20.1153 8.18064 19.8659C7.27397 19.6166 6.45231 19.3333 5.71564 19.0159C4.97897 18.6986 4.36131 18.3813 3.86264 18.0639C3.36397 17.7466 3.06931 17.5313 2.97864 17.4179L0.53064 22.2799C1.23331 22.7559 1.9983 23.1753 2.82564 23.5379C3.65298 23.9006 4.50864 24.2123 5.39264 24.4729C6.27664 24.7336 7.1833 24.9319 8.11264 25.0679C9.04198 25.2039 9.94864 25.2719 10.8326 25.2719C11.9886 25.2719 13.1106 25.1416 14.1986 24.8809C15.2866 24.6203 16.25 24.2009 17.0886 23.6229C17.9273 23.0449 18.6016 22.2856 19.1116 21.3449C19.6216 20.4043 19.8766 19.2539 19.8766 17.8939C19.8766 16.7833 19.701 15.8313 19.3496 15.0379C18.9983 14.2446 18.4996 13.5703 17.8536 13.0149C17.2076 12.4596 16.42 11.9949 15.4906 11.6209C14.5613 11.2469 13.5186 10.9013 12.3626 10.5839C12.0831 10.5084 11.8149 10.4353 11.558 10.3648L10.1526 9.97193C9.51797 9.7906 8.99098 9.59227 8.57164 9.37693C8.1523 9.1616 7.83497 8.91793 7.61964 8.64593C7.40431 8.37393 7.29664 8.03393 7.29664 7.62593C7.29664 6.28859 8.29396 5.61993 10.2886 5.61993C11.014 5.61993 11.7393 5.72193 12.4646 5.92593C13.19 6.12993 13.8586 6.36793 14.4706 6.63993C15.0826 6.91193 15.5926 7.1726 16.0006 7.42193ZM52.4789 25.3399C50.9602 25.3399 49.6059 25.0906 48.4159 24.5919C47.2259 24.0933 46.2229 23.4189 45.4069 22.5689C44.5909 21.7189 43.9732 20.7329 43.5539 19.6109C43.1345 18.4889 42.9249 17.3159 42.9249 16.0919C42.9249 14.8679 43.1345 13.6949 43.5539 12.5729C43.9732 11.4509 44.5909 10.4649 45.4069 9.61493C46.2229 8.76493 47.2259 8.08493 48.4159 7.57493C49.6059 7.06493 50.9602 6.80993 52.4789 6.80993C53.9975 6.80993 55.3462 7.06493 56.5249 7.57493C57.7035 8.08493 58.7009 8.76493 59.5169 9.61493C60.3329 10.4649 60.9562 11.4509 61.3869 12.5729C61.8175 13.6949 62.0329 14.8679 62.0329 16.0919C62.0329 17.3159 61.8232 18.4889 61.4039 19.6109C60.9845 20.7329 60.3669 21.7189 59.5509 22.5689C58.7349 23.4189 57.7319 24.0933 56.5419 24.5919C55.3519 25.0906 53.9975 25.3399 52.4789 25.3399ZM49.6229 19.4749C48.8749 18.6249 48.5009 17.4973 48.5009 16.0919C48.5009 15.4119 48.6029 14.7829 48.8069 14.2049C49.0109 13.6269 49.2885 13.1339 49.6399 12.7259C49.9912 12.3179 50.4105 12.0006 50.8979 11.7739C51.3852 11.5473 51.9122 11.4339 52.4789 11.4339C53.6122 11.4339 54.5529 11.8589 55.3009 12.7089C56.0489 13.5589 56.4229 14.6866 56.4229 16.0919C56.4229 16.7719 56.3209 17.4009 56.1169 17.9789C55.9129 18.5569 55.6352 19.0499 55.2839 19.4579C54.9325 19.8659 54.5189 20.1833 54.0429 20.4099C53.5669 20.6366 53.0455 20.7499 52.4789 20.7499C51.3229 20.7499 50.3709 20.3249 49.6229 19.4749ZM76.277 11.8079C74.9623 11.8306 73.7723 12.0459 72.707 12.4539C71.6416 12.8619 70.871 13.4739 70.395 14.2899V24.9999H64.955V7.14993H69.953V10.7539C70.565 9.55259 71.3526 8.61193 72.316 7.93193C73.2793 7.25193 74.305 6.9006 75.393 6.87793H75.937C76.0503 6.87793 76.1636 6.88926 76.277 6.91193V11.8079ZM87.7841 24.9319C88.7474 24.6599 89.6031 24.3653 90.3511 24.0479L89.2971 19.7299C88.9798 19.8886 88.6058 20.0359 88.1751 20.1719C87.7444 20.3079 87.3251 20.3759 86.9171 20.3759C86.4638 20.3759 86.0898 20.2456 85.7951 19.9849C85.5004 19.7243 85.3531 19.2993 85.3531 18.7099V11.2639H88.9911V7.14993H85.3531V1.47193H79.9131V7.14993H77.6351V11.2639H79.9131V20.5799C79.9131 21.4413 80.0434 22.1779 80.3041 22.7899C80.5648 23.4019 80.9218 23.8949 81.3751 24.2689C81.8284 24.6429 82.3554 24.9149 82.9561 25.0849C83.5568 25.2549 84.1971 25.3399 84.8771 25.3399C85.8518 25.3399 86.8207 25.2039 87.7841 24.9319ZM92.6272 0.179932H98.0672V18.6419C98.0672 20.0019 98.6452 20.6819 99.8012 20.6819C100.073 20.6819 100.374 20.6423 100.702 20.5629C101.031 20.4836 101.331 20.3646 101.603 20.2059L102.317 24.2859C101.637 24.6033 100.855 24.8526 99.9712 25.0339C99.0872 25.2153 98.2599 25.3059 97.4892 25.3059C95.9252 25.3059 94.7239 24.8979 93.8852 24.0819C93.0465 23.2659 92.6272 22.0873 92.6272 20.5459V0.179932ZM105.358 28.0259C104.962 27.9579 104.537 27.8446 104.083 27.6859V32.3439C104.559 32.5253 105.03 32.6556 105.494 32.7349C105.959 32.8143 106.418 32.8539 106.871 32.8539C108.549 32.8539 109.999 32.3949 111.223 31.4769C112.447 30.5589 113.297 29.3633 113.773 27.8899L120.573 7.14993H115.473L111.903 20.3419L107.755 7.14993H102.145L108.945 24.9999C108.651 26.1786 108.322 26.9946 107.959 27.4479C107.597 27.9013 107.087 28.1279 106.429 28.1279C106.112 28.1279 105.755 28.0939 105.358 28.0259Z" fill="white"/>
</svg>
